<svg id="Camada_1" data-name="Camada 1" xmlns="http://www.w3.org/2000/svg" viewBox="0 0 999 999"><defs><style>.cls-1{fill:#00ad57;}.cls-2{fill:#fff;}</style></defs><title>icon-instagram-green2</title><circle class="cls-1" cx="499.5" cy="499.5" r="499.5"/><path class="cls-2" d="M652.94,159.32H347.59c-103.69,0-188,84.37-188,188.06V652.73c0,103.69,84.36,188,188,188H652.94c103.7,0,188.06-84.36,188.06-188V347.38C841,243.69,756.64,159.32,652.94,159.32Zm127.6,493.41a127.74,127.74,0,0,1-127.6,127.59H347.59C277.24,780.33,220,723.08,220,652.73V347.38A127.74,127.74,0,0,1,347.59,219.79H652.94a127.74,127.74,0,0,1,127.6,127.59V652.73Z" transform="translate(-1)"/><path class="cls-2" d="M500.27,324.47c-96.82,0-175.6,78.77-175.6,175.59s78.78,175.59,175.6,175.59,175.59-78.77,175.59-175.59S597.09,324.47,500.27,324.47Zm0,290.71A115.13,115.13,0,1,1,615.4,500.06,115.26,115.26,0,0,1,500.27,615.18Z" transform="translate(-1)"/><path class="cls-2" d="M683.23,273.2a44.32,44.32,0,1,0,31.36,13A44.49,44.49,0,0,0,683.23,273.2Z" transform="translate(-1)"/></svg>